<svg xmlns="http://www.w3.org/2000/svg" viewBox="0 0 50 50"><defs><style>.cls-1{fill:#fff;opacity:0;}.cls-2{fill:#1d1d1b;}</style></defs><g id="Capa_2" data-name="Capa 2"><g id="Capa_1-2" data-name="Capa 1"><rect class="cls-1" width="50" height="50"/><path class="cls-2" d="M47.56,5.89H41.91V3.81a2.65,2.65,0,1,0-5.29,0V5.89H13.38V3.81a2.65,2.65,0,1,0-5.29,0V5.89H2.44a1.19,1.19,0,0,0-1.19,1.2V47.64a1.19,1.19,0,0,0,1.19,1.2H47.56a1.19,1.19,0,0,0,1.19-1.2V7.09A1.19,1.19,0,0,0,47.56,5.89ZM8.09,8.28v1a2.65,2.65,0,1,0,5.29,0v-1H36.62v1a2.65,2.65,0,1,0,5.29,0v-1h4.45v7.45H3.64V8.28ZM3.64,46.45V20.5H46.36v26Z"/><path class="cls-2" d="M35.13,24,21.82,37.6l-7-6.5a1.19,1.19,0,1,0-1.62,1.74l8.68,8.08L36.83,25.69a1.19,1.19,0,0,0,0-1.68A1.2,1.2,0,0,0,35.13,24Z"/></g></g></svg>