<svg xmlns="http://www.w3.org/2000/svg" viewBox="0 0 50 50"><defs><style>.cls-1{fill:#fff;opacity:0;}.cls-2{fill:#1d1d1b;}</style></defs><g id="Capa_2" data-name="Capa 2"><g id="Capa_1-2" data-name="Capa 1"><rect class="cls-1" width="50" height="50"/><path class="cls-2" d="M46.91,8.15H3.09A3.1,3.1,0,0,0,0,11.24V38.76a3.1,3.1,0,0,0,3.09,3.09H46.91A3.1,3.1,0,0,0,50,38.76V11.24A3.1,3.1,0,0,0,46.91,8.15ZM3.09,10.42H46.91a.82.82,0,0,1,.82.82v3.68H2.27V11.24A.82.82,0,0,1,3.09,10.42ZM46.91,39.58H3.09a.82.82,0,0,1-.82-.82V19.47H47.73V38.76A.82.82,0,0,1,46.91,39.58Z"/><rect class="cls-2" x="18.22" y="26.31" width="27.21" height="4.55"/><rect class="cls-2" x="27.13" y="33.32" width="18.3" height="2.27"/></g></g></svg>