<svg xmlns="http://www.w3.org/2000/svg" viewBox="0 0 50 50"><defs><style>.cls-1{fill:#fff;opacity:0;}.cls-2{fill:#1d1d1b;}</style></defs><g id="Capa_2" data-name="Capa 2"><g id="Capa_1-2" data-name="Capa 1"><rect class="cls-1" width="50" height="50"/><path class="cls-2" d="M40.34,8.08H37.79V7.72a3,3,0,0,0-3-3H33.34V3.62a3,3,0,0,0-3-3H19.24a3,3,0,0,0-3,3V4.71H14.77a3,3,0,0,0-3,3v.36H9.66a3.41,3.41,0,0,0-3.4,3.4V46a3.41,3.41,0,0,0,3.4,3.39H40.34A3.41,3.41,0,0,0,43.74,46V11.48A3.41,3.41,0,0,0,40.34,8.08ZM13.9,7.72a.88.88,0,0,1,.87-.89h1.46a2.11,2.11,0,0,0,2.12-2.12V3.62a.89.89,0,0,1,.89-.89H30.33a.89.89,0,0,1,.89.89V4.71a2.11,2.11,0,0,0,2.12,2.12h1.44a.9.9,0,0,1,.89.89v2.85a.88.88,0,0,1-.89.87h-20a.86.86,0,0,1-.87-.87V7.72ZM41.62,46a1.28,1.28,0,0,1-1.28,1.27H9.66A1.28,1.28,0,0,1,8.38,46V11.48a1.28,1.28,0,0,1,1.28-1.27h2.12v.36a3,3,0,0,0,3,3h20a3,3,0,0,0,3-3v-.36h2.55a1.28,1.28,0,0,1,1.28,1.27Z"/><rect class="cls-2" x="13.56" y="18.66" width="22.61" height="2.12"/><rect class="cls-2" x="13.56" y="24.9" width="22.61" height="2.12"/><rect class="cls-2" x="13.56" y="31.14" width="22.61" height="2.12"/><rect class="cls-2" x="13.56" y="37.38" width="22.61" height="2.12"/></g></g></svg>