<svg xmlns="http://www.w3.org/2000/svg" viewBox="0 0 50 50"><defs><style>.cls-1{fill:#fff;opacity:0;}.cls-2{fill:#1d1d1b;}</style></defs><g id="Capa_2" data-name="Capa 2"><g id="Capa_1-2" data-name="Capa 1"><rect class="cls-1" width="50" height="50"/><path class="cls-2" d="M31.15,25.28a13.1,13.1,0,1,0-12.3,0A23.76,23.76,0,0,0,1.25,48.19,1.19,1.19,0,0,0,1.6,49a1.16,1.16,0,0,0,.84.35H47.56a1.2,1.2,0,0,0,1.19-1.19A23.76,23.76,0,0,0,31.15,25.28ZM14.28,13.72A10.72,10.72,0,1,1,25,24.44,10.73,10.73,0,0,1,14.28,13.72ZM25,47H3.67a21.36,21.36,0,0,1,42.66,0Z"/></g></g></svg>