<svg xmlns="http://www.w3.org/2000/svg" viewBox="0 0 50 50"><defs><style>.cls-1{fill:#fff;opacity:0;}</style></defs><g id="Capa_2" data-name="Capa 2"><g id="Capa_1-2" data-name="Capa 1"><rect class="cls-1" width="50" height="50"/><polygon points="6.58 3.26 32.86 3.26 32.86 2.26 5.58 2.26 5.58 47.74 32.86 47.74 32.86 46.74 6.58 46.74 6.58 3.26"/><path d="M44.38,25.4a.45.45,0,0,0,0-.16v0h0a.58.58,0,0,0,0-.18s0,0,0-.07a.56.56,0,0,1-.05-.08l-9-10.07a.5.5,0,1,0-.74.66l8.27,9.24H20.15a.5.5,0,0,0-.5.5.5.5,0,0,0,.5.5H42.82l-8.3,9.59a.49.49,0,0,0,0,.7.52.52,0,0,0,.33.12.48.48,0,0,0,.38-.17l9-10.41a.2.2,0,0,0,0-.08Z"/></g></g></svg>