<svg xmlns="http://www.w3.org/2000/svg" viewBox="0 0 50 50"><defs><style>.cls-1{fill:#fff;opacity:0;}.cls-2{fill:#1d1d1b;}</style></defs><g id="Capa_2" data-name="Capa 2"><g id="Capa_1-2" data-name="Capa 1"><rect class="cls-1" width="50" height="50"/><path class="cls-2" d="M46.36,25.82a1.75,1.75,0,0,0,0-1.31,1.73,1.73,0,0,0-.38-.57L35.86,13.82a1.72,1.72,0,0,0-2.44,2.43l7.18,7.19H20.06a1.73,1.73,0,0,0,0,3.45H40.6l-7.27,7.27a1.73,1.73,0,1,0,2.44,2.44L46,26.39A1.73,1.73,0,0,0,46.36,25.82Z"/><path class="cls-2" d="M44.11,33.66a1.72,1.72,0,0,0-1.73,1.72V45.87H7V4.13H42.38V15a1.73,1.73,0,0,0,3.45,0V2.4A1.72,1.72,0,0,0,44.11.68H5.24A1.72,1.72,0,0,0,3.51,2.4V47.6a1.72,1.72,0,0,0,1.73,1.72H44.11a1.72,1.72,0,0,0,1.72-1.72V35.38A1.72,1.72,0,0,0,44.11,33.66Z"/></g></g></svg>