<svg xmlns="http://www.w3.org/2000/svg" viewBox="0 0 50 50"><defs><style>.cls-1{fill:#fff;opacity:0;}.cls-2{fill:#1d1d1b;}</style></defs><g id="Capa_2" data-name="Capa 2"><g id="Capa_1-2" data-name="Capa 1"><rect class="cls-1" width="50" height="50"/><path class="cls-2" d="M49.42,21l-3.1-4.16-1.79-2.42h1.79a2.43,2.43,0,0,0,0-4.85h-3a1.63,1.63,0,0,0-.49.05,3.24,3.24,0,0,0-1.43.48L38.49,6.29a2.87,2.87,0,0,0-2.32-1.17H13.81a2.87,2.87,0,0,0-2.33,1.19L8.7,10.11a3.47,3.47,0,0,0-1.43-.48,1.57,1.57,0,0,0-.49-.05H3.1a2.43,2.43,0,0,0,0,4.85H5.52L3.73,16.85.56,21.16A2.92,2.92,0,0,0,0,22.88v13a2.89,2.89,0,0,0,2.59,2.88V41.8a3.07,3.07,0,1,0,6.13,0v-3H41.06v3.07a3.08,3.08,0,0,0,6.15,0V38.75A2.94,2.94,0,0,0,50,35.84V22.76A3.06,3.06,0,0,0,49.42,21ZM9.74,27.29H3.25a.77.77,0,0,1-.78-.78V22.37a.77.77,0,0,1,.78-.77H5.6l.53.21L10.3,26A.77.77,0,0,1,9.74,27.29ZM34.37,34.8H15.63a.88.88,0,1,1,0-1.75H34.37a.88.88,0,1,1,0,1.75Zm-1.18-5.16H15.89a2.36,2.36,0,0,1,0-4.72h17.3a2.36,2.36,0,1,1,0,4.72ZM37.72,16l-25.37.09a1.41,1.41,0,0,1-1.18-2.2L14,9.58A1.46,1.46,0,0,1,15.24,9H35a1.44,1.44,0,0,1,1.22.66l2.69,4.19A1.42,1.42,0,0,1,37.72,16Zm9.49,10.53a.76.76,0,0,1-.75.78H40A.77.77,0,0,1,39.41,26l4.15-4.17.5-.21h2.4a.75.75,0,0,1,.75.77Z"/></g></g></svg>