<svg xmlns="http://www.w3.org/2000/svg" viewBox="0 0 50 50"><defs><style>.cls-1{fill:#fff;opacity:0;}</style></defs><g id="Capa_2" data-name="Capa 2"><g id="Capa_1-2" data-name="Capa 1"><rect class="cls-1" width="50" height="50"/><circle cx="24.94" cy="4.07" r="3.99"/><circle cx="11.93" cy="8.83" r="3.33"/><path d="M16.11,15.86l1.1-4.07a2.78,2.78,0,0,1,2.13-2L22,9.21a0,0,0,0,1,0,0l.79,5.35v0l1,1.24a0,0,0,0,1,0,.07H16.15A0,0,0,0,1,16.11,15.86Z"/><path d="M33.58,15.86l-1.1-4.07a2.78,2.78,0,0,0-2.13-2l-2.67-.57a0,0,0,0,0-.05,0l-.79,5.35v0l-1,1.24a0,0,0,0,0,0,.07h7.69A0,0,0,0,0,33.58,15.86Z"/><path d="M24.2,9.11h1.37a.17.17,0,0,1,.16.24l-.3.72L26,14.64l-.86,1.28h-.42l-.86-1.25.54-4.55L24,9.34A.17.17,0,0,1,24.2,9.11Z"/><path d="M10.06,15.81l-.5-2.75A.1.1,0,0,0,9.44,13L7,13.55A1.67,1.67,0,0,0,5.77,14.7l-.32,1.1a.1.1,0,0,0,.1.12H10A.1.1,0,0,0,10.06,15.81Z"/><path d="M12.51,13h-1a.17.17,0,0,0-.16.21l.23.64-.32,2.11h1.46l-.32-2.1.25-.64A.16.16,0,0,0,12.51,13Z"/><path d="M15.28,13.13,14.49,13a.1.1,0,0,0-.1.07l-.47,2.74a.09.09,0,0,0,.09.1h.5a.09.09,0,0,0,.08-.06l.76-2.62A.09.09,0,0,0,15.28,13.13Z"/><circle cx="37.84" cy="8.83" r="3.33"/><path d="M39.71,15.81l.5-2.75a.1.1,0,0,1,.12-.08l2.45.57A1.67,1.67,0,0,1,44,14.7l.31,1.1a.09.09,0,0,1-.09.12H39.81A.1.1,0,0,1,39.71,15.81Z"/><path d="M37.26,13h1a.16.16,0,0,1,.15.21l-.22.64.32,2.11H37l.32-2.1-.25-.64A.15.15,0,0,1,37.26,13Z"/><path d="M34.48,13.13l.8-.12s.09,0,.09.07l.48,2.74a.09.09,0,0,1-.09.1h-.5a.09.09,0,0,1-.08-.06l-.76-2.62A.08.08,0,0,1,34.48,13.13Z"/><path d="M7.11,40.64H11a0,0,0,0,1,0,0v.57A1.92,1.92,0,0,1,9,43.13H9a1.92,1.92,0,0,1-1.92-1.92v-.57a0,0,0,0,1,0,0Z"/><path d="M12.94,40.64h3.85a0,0,0,0,1,0,0v.57a1.92,1.92,0,0,1-1.92,1.92h0a1.92,1.92,0,0,1-1.92-1.92v-.57A0,0,0,0,1,12.94,40.64Z"/><path d="M32.88,40.64h3.85a0,0,0,0,1,0,0v.57a1.92,1.92,0,0,1-1.92,1.92h0a1.92,1.92,0,0,1-1.92-1.92v-.57A0,0,0,0,1,32.88,40.64Z"/><path d="M38.72,40.64h3.85a0,0,0,0,1,0,0v.57a1.92,1.92,0,0,1-1.92,1.92h0a1.92,1.92,0,0,1-1.92-1.92v-.57A0,0,0,0,1,38.72,40.64Z"/><path d="M19,40.64h4.57a0,0,0,0,1,0,0v2.58a2.29,2.29,0,0,1-2.29,2.29h0A2.29,2.29,0,0,1,19,43.22V40.64A0,0,0,0,1,19,40.64Z"/><path d="M26.08,40.64h4.57a0,0,0,0,1,0,0v2.58a2.29,2.29,0,0,1-2.29,2.29h0a2.29,2.29,0,0,1-2.29-2.29V40.64A0,0,0,0,1,26.08,40.64Z"/><path d="M48.81,42.87c-1.29,2.68-5.4,4.68-12.2,6A62.39,62.39,0,0,1,25,49.92a62.55,62.55,0,0,1-11.63-1.09C6.56,47.55,2.46,45.55,1.18,42.88a3.84,3.84,0,0,1-.36-2.24h1a2.71,2.71,0,0,0,.26,1.83c.79,1.62,3.43,3.87,11.44,5.38a61.6,61.6,0,0,0,22.89,0c8-1.51,10.66-3.76,11.46-5.38a2.79,2.79,0,0,0,.27-1.83h1A3.74,3.74,0,0,1,48.81,42.87Z"/><path d="M48.72,38.85H1.28a.5.5,0,0,1-.5-.5V18.66a.5.5,0,0,1,.5-.5H48.72a.5.5,0,0,1,.5.5V38.35A.5.5,0,0,1,48.72,38.85Zm-46.94-1H48.22V19.16H1.78Z"/><path d="M43.54,24.72H6.17a.51.51,0,0,1-.5-.5.5.5,0,0,1,.5-.5H43.54a.5.5,0,0,1,.5.5A.51.51,0,0,1,43.54,24.72Z"/><path d="M43.54,28.72H6.17a.51.51,0,0,1-.5-.5.5.5,0,0,1,.5-.5H43.54a.5.5,0,0,1,.5.5A.51.51,0,0,1,43.54,28.72Z"/><path d="M43.54,32.72H6.17a.5.5,0,0,1,0-1H43.54a.5.5,0,0,1,0,1Z"/></g></g></svg>