<svg width="24" height="29" viewBox="0 0 24 29" fill="none" xmlns="http://www.w3.org/2000/svg">
<path d="M7.34897 0.0826653C7.21159 0.0835746 7.07658 0.119633 6.95616 0.187586C6.56072 0.412841 6.41569 0.934937 6.63478 1.34103L7.52756 2.99779C5.37656 4.36542 3.95128 6.7016 3.95128 9.36796V9.86337C3.53813 9.3749 2.93091 9.0665 2.25244 9.0665C1.00931 9.0665 0 10.1038 0 11.3812V18.5116C0 19.789 1.00941 20.8263 2.25244 20.8263C2.93091 20.8263 3.53813 20.5178 3.95119 20.0294V21.0282C3.95119 22.3748 5.02341 23.4766 6.33375 23.4766H6.93825V26.6486C6.93825 27.9261 7.94766 28.9634 9.19069 28.9634C10.4337 28.9634 11.443 27.926 11.443 26.6486V23.4766H12.4889V26.6486C12.4889 27.9261 13.4983 28.9634 14.7413 28.9634C15.9844 28.9634 16.9937 27.926 16.9937 26.6486V23.4766H17.5983C18.9085 23.4766 19.9808 22.3748 19.9808 21.0282V20.0294C20.3938 20.5178 21.0011 20.8263 21.6796 20.8263C22.9226 20.8263 23.9319 19.789 23.9319 18.5116V11.3812C23.9319 10.1038 22.9226 9.0665 21.6796 9.0665C21.0011 9.0665 20.3938 9.3749 19.9808 9.86337V9.42818C19.9809 9.40313 19.9808 9.38309 19.9808 9.36796C19.9808 6.70208 18.5522 4.36821 16.4019 3.00049L17.2972 1.34103C17.5163 0.934937 17.3713 0.412841 16.9759 0.187586C16.8554 0.119633 16.7204 0.0835746 16.5831 0.0826653C16.291 0.0797749 16.0044 0.237974 15.8535 0.517858L14.9173 2.25593C14.0019 1.9088 13.0059 1.71852 11.9661 1.71852C10.9271 1.71852 9.92925 1.90677 9.01462 2.25323L8.07853 0.517858C7.9275 0.237974 7.641 0.0799676 7.34897 0.0826653Z" fill="#121A34"/>
<path d="M2.25245 9.66943C1.32489 9.66943 0.586792 10.428 0.586792 11.3812V18.5116C0.586792 19.4649 1.32489 20.2234 2.25245 20.2234C3.18001 20.2234 3.9182 19.4649 3.9182 18.5116V11.3812C3.9182 10.428 3.18001 9.66943 2.25245 9.66943ZM21.6797 9.66943C20.752 9.66943 20.0139 10.428 20.0139 11.3812V18.5116C20.0139 19.4649 20.752 20.2234 21.6797 20.2234C22.6073 20.2234 23.3454 19.4649 23.3454 18.5116V11.3812C23.3454 10.428 22.6073 9.66943 21.6797 9.66943ZM9.1907 17.8064C8.26313 17.8064 7.52495 18.5649 7.52495 19.5183V26.6486C7.52495 27.6018 8.26313 28.3604 9.1907 28.3604C10.1183 28.3604 10.8564 27.6018 10.8564 26.6486V19.5183C10.8564 18.5649 10.1183 17.8064 9.1907 17.8064ZM14.7414 17.8064C13.8137 17.8064 13.0756 18.5649 13.0756 19.5183V26.6486C13.0756 27.6018 13.8137 28.3604 14.7414 28.3604C15.6689 28.3604 16.407 27.6018 16.407 26.6486V19.5183C16.407 18.5649 15.6689 17.8064 14.7414 17.8064Z" fill="#E5E5E5"/>
<path d="M7.35403 0.685687C7.31463 0.686175 7.27601 0.696986 7.24181 0.717096C7.12303 0.784731 7.08403 0.92501 7.14994 1.04737L8.32341 3.22584C6.06591 4.43305 4.54097 6.72713 4.53797 9.36006H19.3941C19.391 6.72713 17.8661 4.43295 15.6086 3.22584L16.782 1.04746C16.848 0.925106 16.8089 0.784731 16.6901 0.717096C16.6559 0.696974 16.6173 0.686162 16.5779 0.685687C16.4935 0.684724 16.4138 0.728079 16.3688 0.811515L15.18 3.01349C14.2076 2.5703 13.1169 2.32144 11.966 2.32144C10.815 2.32144 9.72441 2.57021 8.75194 3.01349L7.56319 0.811515C7.54291 0.772862 7.51269 0.740681 7.47582 0.718489C7.43894 0.696298 7.39685 0.684951 7.35412 0.685687H7.35403ZM4.53797 9.96299V21.0283C4.53746 21.2708 4.58357 21.511 4.67363 21.7351C4.7637 21.9593 4.89596 22.1629 5.06282 22.3344C5.22967 22.5058 5.42784 22.6417 5.64594 22.7343C5.86404 22.8268 6.09779 22.8742 6.33375 22.8737H17.5983C17.8343 22.8742 18.068 22.8268 18.2861 22.7343C18.5042 22.6417 18.7024 22.5058 18.8692 22.3343C19.0361 22.1629 19.1684 21.9592 19.2584 21.7351C19.3485 21.5109 19.3946 21.2707 19.3941 21.0282V9.96309H4.53797V9.96299Z" fill="#E5E5E5"/>
<path d="M8.5376 5.29158C8.19851 5.29158 7.91772 5.58004 7.91772 5.92852C7.91772 6.2771 8.19851 6.56556 8.5376 6.56556C8.87679 6.56556 9.15747 6.2771 9.15747 5.92852C9.15747 5.58004 8.87679 5.29158 8.5376 5.29158ZM15.3943 5.29158C15.0551 5.29158 14.7744 5.58004 14.7744 5.92852C14.7744 6.2771 15.0551 6.56556 15.3943 6.56556C15.7334 6.56556 16.0142 6.2771 16.0142 5.92852C16.0142 5.58004 15.7334 5.29158 15.3943 5.29158Z" fill="#121A34"/>
</svg>
