<svg width="22" height="28" viewBox="0 0 22 28" fill="none" xmlns="http://www.w3.org/2000/svg">
<path d="M12.375 2.19877C13.4062 0.891392 14.6857 0.198086 16.2135 0.118851C16.3663 1.66393 15.9079 3.10997 14.8385 4.45696C13.7309 5.88319 12.4323 6.53688 10.9427 6.41803C10.7899 4.91257 11.2673 3.50615 12.375 2.19877ZM19.8802 24.0676C19.4218 24.7807 19.0399 25.3354 18.7343 25.7316C18.4288 26.1277 18.0086 26.514 17.4739 26.8904C16.9392 27.2667 16.4045 27.4549 15.8698 27.4549C15.2968 27.4549 14.5998 27.2667 13.7786 26.8904C12.9574 26.514 12.2031 26.3258 11.5156 26.3258C10.7899 26.3258 10.0165 26.514 9.19527 26.8904C8.37409 27.2667 7.71524 27.4549 7.21871 27.4549C6.68399 27.4945 6.13972 27.3163 5.5859 26.9201C5.03208 26.5239 4.60239 26.1277 4.29684 25.7316C3.99128 25.3354 3.57114 24.7609 3.03642 24.0082C2.23434 22.8197 1.58503 21.443 1.0885 19.8781C0.591975 18.3132 0.334163 16.6393 0.315066 14.8566C0.295968 13.0738 0.649267 11.5287 1.37496 10.2213C2.59718 8.00273 4.41142 6.85382 6.81767 6.77459C7.46698 6.77459 8.28816 6.97267 9.28121 7.36885C10.2743 7.76502 10.9045 7.96311 11.1718 7.96311C11.3628 7.96311 12.0503 7.73531 13.2343 7.27971C14.4184 6.82411 15.4114 6.63593 16.2135 6.71516C18.3142 6.87363 19.9184 7.78483 21.026 9.44877C20.835 9.56762 20.5581 9.76571 20.1953 10.043C19.8324 10.3204 19.4027 10.8948 18.9062 11.7664C18.4097 12.638 18.1614 13.5888 18.1614 14.6188C18.1614 15.0546 18.2092 15.4805 18.3046 15.8965C18.4001 16.3125 18.5147 16.679 18.6484 16.9959C18.7821 17.3128 18.9349 17.61 19.1067 17.8873C19.2786 18.1646 19.46 18.4122 19.651 18.6301C19.842 18.848 20.0329 19.0461 20.2239 19.2244C20.4149 19.4027 20.5963 19.5512 20.7682 19.6701C20.9401 19.7889 21.0928 19.888 21.2265 19.9672C21.3602 20.0464 21.4652 20.1059 21.5416 20.1455L21.7135 20.2049L21.5416 20.7992C21.3889 21.1557 21.1692 21.651 20.8828 22.2848C20.5963 22.9187 20.2621 23.513 19.8802 24.0676Z" fill="#E5E5E5"/>
</svg>
