<svg width="21" height="20" viewBox="0 0 21 20" fill="none" xmlns="http://www.w3.org/2000/svg">
<path d="M13.9095 10C13.9095 10.6329 13.7218 11.2516 13.3702 11.7778C13.0186 12.3041 12.5188 12.7142 11.9341 12.9564C11.3493 13.1986 10.7059 13.262 10.0852 13.1385C9.46444 13.015 8.89426 12.7103 8.44673 12.2627C7.9992 11.8152 7.69443 11.245 7.57096 10.6243C7.44749 10.0035 7.51086 9.36014 7.75306 8.77541C7.99526 8.19069 8.40541 7.69092 8.93165 7.3393C9.45789 6.98768 10.0766 6.8 10.7095 6.8C11.5574 6.80264 12.3698 7.14063 12.9693 7.74017C13.5688 8.33972 13.9068 9.15212 13.9095 10ZM20.7095 5.6V14.4C20.7095 15.8852 20.1195 17.3096 19.0693 18.3598C18.0191 19.41 16.5947 20 15.1095 20H6.30947C4.82426 20 3.39988 19.41 2.34967 18.3598C1.29947 17.3096 0.709473 15.8852 0.709473 14.4V5.6C0.709473 4.11479 1.29947 2.69041 2.34967 1.6402C3.39988 0.589998 4.82426 0 6.30947 0H15.1095C16.5947 0 18.0191 0.589998 19.0693 1.6402C20.1195 2.69041 20.7095 4.11479 20.7095 5.6ZM15.5095 10C15.5095 9.05065 15.228 8.12262 14.7005 7.33326C14.1731 6.54391 13.4234 5.92868 12.5464 5.56538C11.6693 5.20208 10.7041 5.10702 9.77304 5.29223C8.84193 5.47744 7.98665 5.9346 7.31536 6.60589C6.64407 7.27718 6.18691 8.13246 6.0017 9.06357C5.81649 9.99468 5.91155 10.9598 6.27485 11.8369C6.63815 12.714 7.25338 13.4636 8.04274 13.9911C8.83209 14.5185 9.76012 14.8 10.7095 14.8C11.9825 14.8 13.2034 14.2943 14.1036 13.3941C15.0038 12.4939 15.5095 11.273 15.5095 10ZM17.1095 4.8C17.1095 4.56266 17.0391 4.33066 16.9072 4.13332C16.7754 3.93598 16.588 3.78217 16.3687 3.69134C16.1494 3.60052 15.9081 3.57676 15.6754 3.62306C15.4426 3.66936 15.2288 3.78365 15.0609 3.95147C14.8931 4.11929 14.7788 4.33311 14.7325 4.56589C14.6862 4.79867 14.71 5.03995 14.8008 5.25922C14.8916 5.47849 15.0455 5.66591 15.2428 5.79776C15.4401 5.92962 15.6721 6 15.9095 6C16.2277 6 16.533 5.87357 16.758 5.64853C16.983 5.42348 17.1095 5.11826 17.1095 4.8Z" fill="#F7F7F7"/>
</svg>
