<svg width="25" height="20" viewBox="0 0 25 20" fill="none" xmlns="http://www.w3.org/2000/svg">
<path d="M24.9347 2.37815C24.2458 3.37634 23.3905 4.25149 22.4054 4.96626L22.3751 4.9871C22.3852 5.13264 22.3902 5.35123 22.3902 5.64287C22.3885 7.05101 22.1772 8.45121 21.763 9.79836L21.7899 9.6967C21.3721 11.093 20.7461 12.4197 19.9325 13.633L19.9662 13.5789C19.1632 14.7994 18.1894 15.9011 17.0739 16.8511L17.0537 16.8678C15.8727 17.8481 14.5239 18.6112 13.0711 19.1209L12.9801 19.1484C11.494 19.6884 9.77805 20 7.98882 20H7.87599H7.88189H7.77495C4.90376 20 2.23128 19.1542 0 17.7002L0.0530455 17.7327C0.40584 17.7727 0.814206 17.7952 1.22847 17.7952H1.28741H1.28404L1.39013 17.796C3.7536 17.796 5.9251 16.9836 7.63518 15.6245L7.61582 15.6395C6.55822 15.62 5.53277 15.2764 4.68076 14.656C3.82874 14.0357 3.1921 13.1691 2.85856 12.1757L2.84846 12.1398C3.13642 12.1873 3.46985 12.2157 3.80917 12.2182H3.8117C4.27716 12.2187 4.74064 12.1581 5.19004 12.0382L5.15299 12.0465C4.00519 11.8222 2.97214 11.2094 2.23128 10.3133L2.22454 10.3041C1.47248 9.42592 1.06087 8.31143 1.06344 7.16025L1.06428 7.09025V7.09359V7.03109C1.76606 7.42511 2.55397 7.64471 3.36039 7.67104H3.36965C2.68575 7.21869 2.12176 6.61025 1.72524 5.89702L1.71177 5.87119C1.3053 5.13275 1.09361 4.30478 1.09627 3.46389C1.09627 2.52564 1.35392 1.64738 1.80355 0.894106L1.79092 0.917438C3.04336 2.44249 4.59783 3.69785 6.35872 4.60629L6.43871 4.64379C8.14122 5.53288 10.1452 6.09617 12.2712 6.19699L12.3032 6.19783C12.2202 5.81946 12.1781 5.43343 12.1777 5.04626C12.1789 4.03461 12.487 3.04578 13.0621 2.20942C13.6372 1.37306 14.4529 0.726868 15.4034 0.354543C16.3539 -0.0177816 17.3954 -0.0990819 18.3932 0.121173C19.3909 0.341428 20.2988 0.853089 20.9993 1.58988L21.0018 1.59238C22.1601 1.37282 23.2698 0.951902 24.2797 0.349152L24.2351 0.37415C23.8669 1.53687 23.0765 2.52335 22.0164 3.14308L21.9928 3.15558C23.0305 3.04166 24.0441 2.76987 24.9979 2.34982L24.9331 2.37565L24.9347 2.37815Z" fill="#F7F7F7"/>
</svg>
