<?xml version="1.0" standalone="no"?>
<!DOCTYPE svg PUBLIC "-//W3C//DTD SVG 20010904//EN"
 "http://www.w3.org/TR/2001/REC-SVG-20010904/DTD/svg10.dtd">
<svg version="1.0" xmlns="http://www.w3.org/2000/svg"
 width="1050.000000pt" height="596.000000pt" viewBox="0 0 1050.000000 596.000000"
 preserveAspectRatio="xMidYMid meet">

<g transform="translate(0.000000,596.000000) scale(0.100000,-0.100000)"
fill="#000000" stroke="none">
<path d="M5020 4580 c-107 -11 -195 -36 -270 -77 -36 -20 -303 -194 -595 -388
-291 -194 -549 -362 -573 -374 -85 -43 -224 -68 -778 -141 -209 -27 -437 -59
-505 -70 -68 -11 -294 -42 -501 -70 -595 -79 -728 -105 -754 -145 -8 -12 -35
-93 -59 -179 -64 -223 -53 -207 -215 -307 -129 -79 -184 -133 -233 -228 -37
-72 -37 -74 -37 -191 0 -119 0 -119 39 -194 52 -100 101 -166 165 -221 63 -54
109 -73 131 -55 27 23 16 47 -50 105 -67 58 -134 144 -176 225 -20 38 -23 60
-24 140 0 86 3 100 29 146 15 29 47 73 69 99 42 47 53 54 206 142 99 57 113
80 166 266 38 133 64 207 72 207 3 0 83 13 178 30 95 16 345 52 556 80 211 28
454 61 539 75 85 13 295 43 465 65 376 49 649 94 714 119 26 10 270 166 542
348 588 393 698 462 764 479 176 48 760 39 1149 -17 163 -23 435 -78 591 -119
126 -33 501 -151 560 -176 22 -9 110 -43 195 -75 338 -126 713 -291 1091 -480
519 -259 895 -516 1083 -739 141 -167 171 -244 171 -440 0 -115 -3 -141 -20
-175 -28 -56 -119 -125 -252 -192 -110 -55 -130 -73 -117 -106 13 -35 43 -29
167 32 253 126 316 215 317 447 0 164 -53 314 -159 446 -214 269 -606 538
-1226 844 -343 169 -733 339 -995 435 -74 27 -180 67 -235 88 -430 165 -1064
308 -1465 330 -239 14 -633 20 -720 11z"/>
<path d="M6140 2561 c-60 -11 -119 -37 -148 -64 -56 -52 -75 -140 -44 -210 26
-59 82 -92 220 -129 127 -35 140 -41 148 -75 15 -59 -32 -85 -141 -80 -60 2
-95 10 -139 30 -32 15 -60 27 -62 27 -2 0 -16 -23 -30 -52 l-26 -52 22 -18
c69 -56 281 -80 389 -44 142 48 195 211 99 303 -45 42 -59 48 -189 83 -63 17
-122 38 -131 47 -24 22 -23 66 3 89 32 29 176 27 242 -3 l47 -22 16 37 c35 83
33 87 -37 111 -75 24 -175 33 -239 22z"/>
<path d="M6823 2560 c-110 -23 -214 -104 -256 -198 -28 -64 -34 -173 -13 -243
45 -150 184 -245 356 -243 117 1 187 29 261 103 70 70 99 141 99 241 0 100
-29 171 -99 241 -39 39 -73 62 -114 77 -66 25 -173 35 -234 22z m199 -159 c71
-49 104 -135 87 -228 -19 -99 -85 -155 -189 -161 -99 -6 -169 35 -205 120 -43
105 0 227 100 282 46 25 161 18 207 -13z"/>
<path d="M1875 2547 c-3 -7 -4 -158 -3 -337 l3 -325 135 -3 c258 -5 368 24
454 119 54 60 80 131 80 219 0 88 -26 159 -80 219 -85 95 -178 120 -437 121
-109 0 -149 -3 -152 -13z m418 -150 c64 -38 102 -115 94 -192 -7 -73 -41 -131
-96 -163 -38 -22 -59 -26 -152 -30 l-109 -5 0 213 0 213 109 -5 c95 -4 114 -8
154 -31z"/>
<path d="M2665 2548 c-3 -7 -4 -159 -3 -338 l3 -325 258 -3 257 -2 0 65 0 65
-180 0 -180 0 0 75 0 74 153 3 152 3 0 60 0 60 -152 3 -153 3 0 69 0 70 175 0
176 0 -3 63 -3 62 -248 3 c-193 2 -249 0 -252 -10z"/>
<path d="M3512 2548 c-13 -17 -292 -645 -292 -659 0 -6 29 -9 76 -7 l76 3 30
73 31 72 154 0 154 0 25 -57 c39 -92 33 -88 118 -91 43 -2 76 1 76 7 0 9 -279
636 -293 659 -5 7 -33 12 -76 12 -43 0 -72 -5 -79 -12z m128 -269 c25 -61 47
-115 48 -120 2 -5 -41 -9 -97 -9 -56 0 -101 4 -101 9 0 15 92 231 99 231 3 0
26 -50 51 -111z"/>
<path d="M4045 2548 c-3 -7 -4 -159 -3 -338 l3 -325 243 -3 242 -2 0 65 0 65
-165 0 -165 0 -2 273 -3 272 -73 3 c-52 2 -74 -1 -77 -10z"/>
<path d="M4625 2548 c-3 -7 -4 -159 -3 -338 l3 -325 258 -3 257 -2 0 65 0 65
-180 0 -180 0 0 75 0 74 153 3 152 3 0 60 0 60 -152 3 -153 3 0 69 0 70 175 0
176 0 -3 63 -3 62 -248 3 c-193 2 -249 0 -252 -10z"/>
<path d="M5265 2549 c-3 -8 -4 -160 -3 -339 l3 -325 75 0 75 0 3 93 3 93 72
-3 72 -3 64 -92 64 -93 78 0 c44 0 79 3 79 6 0 3 -33 53 -72 111 -51 73 -69
108 -60 111 29 9 86 69 103 107 24 53 24 147 0 201 -22 49 -79 98 -140 120
-64 23 -408 33 -416 13z m348 -133 c61 -25 84 -74 66 -140 -16 -58 -54 -76
-166 -76 l-93 0 0 115 0 115 80 0 c46 0 95 -6 113 -14z"/>
<path d="M7395 2548 c-3 -7 -4 -159 -3 -338 l3 -325 75 0 75 0 3 123 3 122
154 0 155 0 0 60 0 60 -155 0 -155 0 0 90 0 90 175 0 176 0 -3 63 -3 62 -248
3 c-193 2 -249 0 -252 -10z"/>
<path d="M7934 2546 c-3 -7 -4 -35 -2 -62 l3 -49 107 -3 108 -3 2 -272 3 -272
75 0 75 0 3 273 2 272 105 0 105 0 0 65 0 65 -290 0 c-238 0 -292 -3 -296 -14z"/>
</g>
</svg>
