<svg width="150" height="133" viewBox="0 0 150 133" fill="none" xmlns="http://www.w3.org/2000/svg">
<path d="M104.844 21.5865L128.333 45.0174C129.323 46.0045 129.323 47.615 128.333 48.6021L71.4583 105.335L47.2917 108.011C44.0625 108.374 41.3281 105.647 41.6927 102.426L44.375 78.3193L101.25 21.5865C102.24 20.5994 103.854 20.5994 104.844 21.5865ZM147.031 15.6379L134.323 2.96133C130.365 -0.987109 123.932 -0.987109 119.948 2.96133L110.729 12.157C109.74 13.1441 109.74 14.7547 110.729 15.7418L134.219 39.1726C135.208 40.1598 136.823 40.1598 137.813 39.1726L147.031 29.9769C150.99 26.0025 150.99 19.5863 147.031 15.6379ZM100 89.9049V116.349H16.6667V33.224H76.5104C77.3438 33.224 78.125 32.8863 78.724 32.3148L89.1406 21.9242C91.1198 19.95 89.7135 16.599 86.9271 16.599H12.5C5.59896 16.599 0 22.184 0 29.0678V120.505C0 127.389 5.59896 132.974 12.5 132.974H104.167C111.068 132.974 116.667 127.389 116.667 120.505V79.5142C116.667 76.7348 113.307 75.358 111.328 77.3062L100.911 87.6969C100.339 88.2943 100 89.0736 100 89.9049Z" fill="black"/>
</svg>
